HIERARCHY
ROOT Hips
{
	OFFSET 0.000000 89.005402 0.000000
	CHANNELS 6 Xposition Yposition Zposition Xrotation Yrotation Zrotation
	JOINT Spine
	{
		OFFSET 0.116900 10.681000 0.373400
		CHANNELS 3 Xrotation Yrotation Zrotation
		JOINT Spine1
		{
			OFFSET 0.000000 13.840401 0.053500
			CHANNELS 3 Xrotation Yrotation Zrotation
			JOINT Spine2
			{
				OFFSET 0.000000 14.712700 -0.366200
				CHANNELS 3 Xrotation Yrotation Zrotation
				JOINT Neck
				{
					OFFSET 0.000000 35.415497 -3.314200
					CHANNELS 3 Xrotation Yrotation Zrotation
					JOINT Head
					{
						OFFSET 0.000000 16.899200 1.218300
						CHANNELS 3 Xrotation Yrotation Zrotation
						JOINT HeadTop_End
						{
							OFFSET 0.000000 22.206207 2.192500
							CHANNELS 3 Xrotation Yrotation Zrotation
							End Site
							{
								OFFSET 0.000000 22.314178 0.000000
							}
						}
					}
				}
				JOINT LeftShoulder
				{
					OFFSET 12.896400 26.716293 -4.548400
					CHANNELS 3 Xrotation Yrotation Zrotation
					JOINT LeftArm
					{
						OFFSET 19.027000 -4.857010 -1.718400
						CHANNELS 3 Xrotation Yrotation Zrotation
						JOINT LeftForeArm
						{
							OFFSET 24.179897 0.000000 0.000000
							CHANNELS 3 Xrotation Yrotation Zrotation
							JOINT LeftHand
							{
								OFFSET 27.156403 0.000000 0.000000
								CHANNELS 3 Xrotation Yrotation Zrotation
								JOINT LeftHandIndex1
								{
									OFFSET 16.441200 0.000000 0.000000
									CHANNELS 3 Xrotation Yrotation Zrotation
									JOINT LeftHandIndex2
									{
										OFFSET 4.821899 0.000000 0.000000
										CHANNELS 3 Xrotation Yrotation Zrotation
										JOINT LeftHandIndex3
										{
											OFFSET 6.386497 0.000000 0.000000
											CHANNELS 3 Xrotation Yrotation Zrotation
											JOINT LeftHandIndex4
											{
												OFFSET 5.188988 0.000000 0.000000
												CHANNELS 3 Xrotation Yrotation Zrotation
												End Site
												{
													OFFSET -0.178703 5.185913 0.000177
												}
											}
										}
									}
								}
								JOINT LeftHandThumb1
								{
									OFFSET 6.534897 -5.032593 5.900300
									CHANNELS 3 Xrotation Yrotation Zrotation
									JOINT LeftHandThumb2
									{
										OFFSET 3.818176 -2.204422 2.204423
										CHANNELS 3 Xrotation Yrotation Zrotation
										JOINT LeftHandThumb3
										{
											OFFSET 3.252098 -1.877594 1.877601
											CHANNELS 3 Xrotation Yrotation Zrotation
											JOINT LeftHandThumb4
											{
												OFFSET 5.251778 -3.032120 3.032117
												CHANNELS 3 Xrotation Yrotation Zrotation
												End Site
												{
													OFFSET 0.000023 6.780014 0.000000
												}
											}
										}
									}
								}
							}
						}
					}
				}
				JOINT RightShoulder
				{
					OFFSET -12.896300 26.716293 -4.548400
					CHANNELS 3 Xrotation Yrotation Zrotation
					JOINT RightArm
					{
						OFFSET -19.027000 -4.857010 -1.718400
						CHANNELS 3 Xrotation Yrotation Zrotation
						JOINT RightForeArm
						{
							OFFSET -24.179897 0.000000 0.000000
							CHANNELS 3 Xrotation Yrotation Zrotation
							JOINT RightHand
							{
								OFFSET -27.156403 0.000000 0.000000
								CHANNELS 3 Xrotation Yrotation Zrotation
								JOINT RightHandThumb1
								{
									OFFSET -6.591202 -4.852203 5.988100
									CHANNELS 3 Xrotation Yrotation Zrotation
									JOINT RightHandThumb2
									{
										OFFSET -3.818176 -2.204422 2.204423
										CHANNELS 3 Xrotation Yrotation Zrotation
										JOINT RightHandThumb3
										{
											OFFSET -3.252098 -1.877594 1.877601
											CHANNELS 3 Xrotation Yrotation Zrotation
											JOINT RightHandThumb4
											{
												OFFSET -5.251778 -3.032120 3.032117
												CHANNELS 3 Xrotation Yrotation Zrotation
												End Site
												{
													OFFSET -0.000023 6.780014 0.000000
												}
											}
										}
									}
								}
								JOINT RightHandIndex1
								{
									OFFSET -16.029404 0.000000 0.000000
									CHANNELS 3 Xrotation Yrotation Zrotation
									JOINT RightHandIndex2
									{
										OFFSET -5.213303 0.000000 0.000000
										CHANNELS 3 Xrotation Yrotation Zrotation
										JOINT RightHandIndex3
										{
											OFFSET -6.386528 0.000000 0.000000
											CHANNELS 3 Xrotation Yrotation Zrotation
											JOINT RightHandIndex4
											{
												OFFSET -5.189026 0.000000 0.000000
												CHANNELS 3 Xrotation Yrotation Zrotation
												End Site
												{
													OFFSET 0.236702 5.183624 0.001972
												}
											}
										}
									}
								}
							}
						}
					}
				}
			}
		}
	}
	JOINT LeftUpLeg
	{
		OFFSET 14.073000 -7.904099 -1.463000
		CHANNELS 3 Xrotation Yrotation Zrotation
		JOINT LeftLeg
		{
			OFFSET -0.109806 -34.073280 4.093200
			CHANNELS 3 Xrotation Yrotation Zrotation
			JOINT LeftFoot
			{
				OFFSET 0.109806 -29.899420 -6.319000
				CHANNELS 3 Xrotation Yrotation Zrotation
				JOINT LeftToeBase
				{
					OFFSET 1.551100 -14.988700 20.535801
					CHANNELS 3 Xrotation Yrotation Zrotation
					JOINT LeftToe_End
					{
						OFFSET 0.221200 0.570800 13.248301
						CHANNELS 3 Xrotation Yrotation Zrotation
						End Site
						{
							OFFSET 0.000000 13.262435 0.000000
						}
					}
				}
			}
		}
	}
	JOINT RightUpLeg
	{
		OFFSET -13.839300 -7.904099 -1.463000
		CHANNELS 3 Xrotation Yrotation Zrotation
		JOINT RightLeg
		{
			OFFSET 0.109694 -34.073219 4.093300
			CHANNELS 3 Xrotation Yrotation Zrotation
			JOINT RightFoot
			{
				OFFSET -0.109694 -29.899384 -6.319200
				CHANNELS 3 Xrotation Yrotation Zrotation
				JOINT RightToeBase
				{
					OFFSET -1.551100 -14.988700 20.535801
					CHANNELS 3 Xrotation Yrotation Zrotation
					JOINT RightToe_End
					{
						OFFSET -0.221200 0.570900 13.248299
						CHANNELS 3 Xrotation Yrotation Zrotation
						End Site
						{
							OFFSET 0.000000 13.262440 0.000000
						}
					}
				}
			}
		}
	}
}
MOTION
Frames: 9
Frame Time: 0.033333
6.474534 84.578491 18.525906 16.153577 -61.749425 4.879547 6.488682 3.471814 -3.691392 13.117560 6.713160 -6.549614 13.117562 6.713166 -6.549617 -4.440771 -4.784719 -7.246406 37.448015 1.199242 11.382426 -0.000001 -0.000001 -0.000000 0.411295 -4.920283 -5.287951 -11.406191 0.850504 -59.721911 12.821352 -41.685403 3.682706 15.252294 -0.067353 19.561737 7.145730 0.505207 -55.744524 -4.051725 -3.671537 -67.562817 -0.000006 -0.000006 -0.000008 -0.000000 0.000001 0.000001 2.579451 13.211052 -2.266487 0.510393 1.838492 -0.534327 -0.000007 -0.000019 -0.000011 0.000000 -0.000000 0.000000 1.533550 10.150219 7.489968 2.345243 -20.949001 73.053675 -8.391179 40.208764 6.602241 9.470292 -6.109159 -1.653633 -8.895816 -4.903158 -0.383708 9.828074 -23.966493 -0.175614 0.000002 0.000003 0.000007 0.000001 0.000002 0.000001 -1.765824 0.402167 24.291853 -0.717326 0.534225 34.930803 0.000002 -0.000003 -0.000004 0.000001 -0.000002 0.000000 -29.895297 5.423041 13.051154 36.167081 6.468238 -3.982426 -15.237353 -0.181423 1.275916 -1.386909 -3.146269 0.936310 -0.000000 0.000001 -0.000000 -13.360384 -8.619418 -16.219724 29.699517 -9.479678 -1.033350 6.026358 -0.461317 20.456888 -7.409825 -1.742952 10.581321 0.000000 0.000000 -0.000000 
6.206014 84.576698 17.975365 16.358371 -61.581006 5.240312 6.473106 3.514224 -3.647938 13.099103 6.793589 -6.611350 13.099077 6.793601 -6.611345 -4.335692 -5.015349 -7.031311 37.362310 0.856581 11.405583 -0.000002 0.000002 0.000000 0.434527 -4.801989 -5.332631 -11.690495 0.609301 -60.245178 12.642562 -40.553534 3.511629 15.463318 -0.935141 20.101045 7.109454 0.157616 -57.528498 -4.251485 -3.746730 -69.314604 -0.000006 -0.000007 -0.000008 -0.000000 -0.000000 -0.000001 2.725402 12.982497 -2.714975 0.515909 1.825016 -0.514516 -0.000008 -0.000019 -0.000008 0.000001 -0.000000 0.000000 1.526217 10.182960 7.514222 2.658984 -21.164994 73.208556 -8.170717 40.568049 6.562618 9.758140 -5.779150 -0.551797 -8.895819 -4.903156 -0.383706 10.001992 -24.624951 0.110731 -0.000002 0.000004 0.000007 -0.000003 -0.000002 -0.000000 -1.735606 0.351342 24.500776 -0.727946 0.550613 35.123329 0.000004 -0.000003 -0.000005 -0.000000 0.000002 -0.000001 -30.047775 5.098612 13.123769 36.007651 6.572145 -3.594736 -14.908583 -0.039396 0.537310 -1.399261 -3.001854 0.826195 0.000000 -0.000001 -0.000000 -13.405829 -8.889008 -16.896893 27.311925 -8.041178 -1.163618 6.484231 -0.444693 20.988553 -7.309417 -1.031445 9.511521 0.000001 -0.000000 0.000000 
5.871792 84.558899 17.366199 16.444877 -61.387391 5.599620 6.467951 3.563393 -3.645088 13.103171 6.881825 -6.741614 13.103185 6.881810 -6.741611 -4.179585 -5.233488 -6.784878 37.287857 0.518249 11.467596 0.000000 0.000000 -0.000001 0.458886 -4.736729 -5.532193 -11.928592 0.428925 -60.544224 12.670772 -39.481383 3.415634 15.790566 -1.665131 20.664362 7.063433 -0.185459 -59.303473 -4.467803 -3.820348 -71.191868 -0.000006 -0.000008 -0.000009 -0.000001 -0.000000 -0.000000 2.770556 12.850297 -3.106115 0.502129 1.758434 -0.488196 -0.000007 -0.000019 -0.000012 0.000001 -0.000000 0.000000 1.526714 10.275759 7.375971 3.094595 -21.347589 73.801533 -8.077337 40.982074 6.563083 9.992937 -5.434852 0.469271 -8.895815 -4.903156 -0.383703 10.097187 -24.901565 0.240012 0.000005 -0.000001 0.000007 0.000001 0.000002 0.000003 -1.759314 0.380614 24.851414 -0.746847 0.576837 35.442514 -0.000001 0.000001 -0.000005 0.000002 -0.000001 0.000000 -30.119171 4.972320 13.315479 35.800792 6.402278 -3.442921 -14.580695 0.069728 -0.056218 -1.434445 -2.940146 0.773185 -0.000000 0.000001 -0.000000 -13.457119 -9.151899 -17.619395 24.752267 -6.557447 -1.249987 7.466034 -0.406590 22.295467 -8.313652 -1.022069 7.816432 -0.000001 0.000000 -0.000000 
5.498062 84.540161 16.695692 16.697482 -61.076399 6.117393 6.440237 3.591677 -3.639660 13.058556 6.934680 -6.835948 13.058543 6.934669 -6.835939 -3.984109 -5.475181 -6.499768 37.210177 0.147446 11.594529 0.000001 0.000001 0.000003 0.482215 -4.707837 -5.802815 -12.093150 0.255615 -60.710956 12.778757 -38.360750 3.285547 16.121973 -2.254880 21.367432 6.990989 -0.561715 -61.153689 -4.686069 -3.886687 -73.065525 -0.000006 -0.000007 -0.000007 0.000001 0.000001 -0.000003 2.930278 12.783776 -3.537719 0.469536 1.625090 -0.416364 -0.000007 -0.000019 -0.000010 -0.000000 0.000001 -0.000002 1.515401 10.239919 7.537600 3.285631 -21.552684 73.994848 -8.038268 41.140118 6.574764 10.191822 -5.118672 1.389658 -8.895819 -4.903158 -0.383704 10.156232 -24.732824 0.161751 -0.000001 0.000002 0.000007 -0.000001 0.000004 0.000002 -1.807954 0.448212 25.350145 -0.772168 0.611468 35.868462 0.000003 -0.000004 -0.000005 -0.000003 -0.000002 0.000002 -30.311847 4.906906 13.595523 35.507059 6.018183 -3.399222 -14.166079 0.164937 -0.570410 -1.384042 -2.878889 0.737585 0.000000 0.000000 -0.000000 -13.637462 -9.200163 -18.211484 22.241657 -5.330102 -1.378375 8.943513 -0.288783 24.089908 -10.236397 -1.106025 5.789713 0.000001 0.000000 -0.000000 
5.097041 84.527374 15.972717 16.907811 -60.562748 6.539236 6.410089 3.586903 -3.580865 13.002523 6.927990 -6.804041 13.002532 6.927984 -6.804042 -3.735119 -5.671197 -6.281281 37.003967 -0.259214 11.653246 -0.000000 -0.000001 0.000001 0.499919 -4.690796 -6.028325 -12.362128 0.142127 -60.995659 12.794442 -36.953215 3.200933 16.600906 -2.962796 21.898319 6.912282 -0.919511 -62.980635 -4.903313 -3.945046 -74.912757 -0.000007 -0.000007 -0.000009 0.000000 -0.000000 0.000000 2.929339 12.735379 -3.884150 0.465134 1.589024 -0.402344 -0.000007 -0.000017 -0.000012 -0.000000 -0.000000 -0.000000 1.538569 10.256472 7.296966 3.711128 -21.727846 74.627378 -8.057114 41.531529 6.497819 10.266353 -4.727278 2.393588 -8.895820 -4.903159 -0.383705 10.260293 -24.448993 0.023897 -0.000003 0.000002 0.000007 -0.000003 0.000000 -0.000002 -1.815092 0.450482 25.853432 -0.802919 0.652780 36.381416 0.000001 -0.000002 -0.000004 -0.000000 0.000000 0.000001 -30.575670 4.737814 13.832484 35.143628 5.550649 -3.195824 -13.647269 0.275737 -1.175789 -1.331130 -2.845686 0.723333 0.000000 0.000000 0.000000 -13.842301 -9.247890 -18.741411 19.990676 -4.395317 -1.425837 10.143588 -0.190355 25.924377 -11.483123 -0.423453 3.706927 0.000000 -0.000000 0.000000 
4.698687 84.437126 15.174437 17.013907 -59.914590 6.867131 6.399313 3.570678 -3.496625 12.980064 6.903858 -6.686652 12.980052 6.903866 -6.686656 -3.527103 -5.922119 -6.023314 36.728366 -0.719532 11.576354 -0.000002 0.000001 -0.000002 0.506612 -4.714000 -6.188253 -12.587572 0.067897 -61.276824 12.817607 -35.705162 3.130164 17.080150 -3.622409 22.256863 6.805549 -1.293392 -64.844764 -5.117614 -3.995301 -76.719519 -0.000007 -0.000006 -0.000008 0.000000 -0.000001 -0.000003 2.826283 12.799046 -4.180250 0.524446 1.606801 -0.435400 -0.000007 -0.000020 -0.000009 -0.000001 0.000000 -0.000000 1.558409 10.225636 7.155377 4.148449 -21.862927 74.852535 -7.768031 42.077042 6.427294 10.301988 -4.183039 3.273892 -8.895817 -4.903156 -0.383703 10.361373 -24.689541 0.133849 -0.000002 0.000004 0.000007 -0.000003 -0.000001 0.000001 -1.799977 0.412875 26.419638 -0.838930 0.698416 36.961623 0.000004 -0.000003 -0.000005 0.000000 -0.000003 0.000001 -31.000815 4.436696 14.014863 34.997380 5.062412 -2.870502 -13.156157 0.398688 -1.893805 -1.282656 -2.768292 0.675205 -0.000000 0.000001 0.000000 -14.059732 -9.142113 -19.148999 18.386517 -3.248741 -1.591146 10.332173 -0.350773 28.527308 -11.712751 -0.393763 1.090323 0.000000 0.000000 -0.000000 
4.311277 84.330795 14.369944 17.046352 -59.240881 7.096468 6.387925 3.597272 -3.369899 12.958691 6.961137 -6.513970 12.958693 6.961136 -6.513966 -3.158898 -6.220928 -5.709756 36.304744 -1.371337 11.694956 -0.000002 -0.000001 0.000003 0.501719 -4.796391 -6.336781 -12.934566 -0.142587 -61.538290 12.918019 -34.268350 3.028238 17.579010 -4.329414 22.672891 6.733606 -1.590767 -66.615006 -5.324987 -4.037152 -78.455794 -0.000007 -0.000007 -0.000011 -0.000000 0.000001 0.000001 2.880469 12.944034 -4.561436 0.550574 1.544613 -0.405069 -0.000007 -0.000019 -0.000008 -0.000000 0.000001 -0.000001 1.565360 10.281228 7.012750 4.674824 -22.125476 74.964215 -7.322727 42.594655 6.312995 10.449287 -3.673673 4.195144 -8.895814 -4.903157 -0.383706 10.506125 -25.322645 0.420938 -0.000000 -0.000003 0.000002 -0.000002 -0.000001 -0.000000 -1.790002 0.380490 27.077453 -0.878459 0.747153 37.589318 0.000003 -0.000002 -0.000005 0.000003 -0.000002 0.000001 -31.444340 4.108588 14.203400 34.885034 4.562570 -2.515061 -12.662923 0.513825 -2.630458 -1.267730 -2.641357 0.583403 0.000000 -0.000002 0.000000 -14.494741 -8.702563 -19.111706 17.863318 -2.788524 -2.072023 9.726601 -0.562401 29.145442 -10.957179 0.283654 0.380231 0.000000 0.000001 -0.000000 
3.888408 84.149658 13.469775 17.003063 -58.551858 7.383342 6.377590 3.626990 -3.254914 12.941474 7.016649 -6.379672 12.941490 7.016623 -6.379659 -2.746077 -6.563105 -5.345890 35.958385 -2.053583 11.841992 0.000001 -0.000002 0.000001 0.495922 -4.882886 -6.477669 -13.147419 -0.322858 -61.630327 13.050523 -33.162816 2.923547 17.955947 -4.908345 23.113804 6.682473 -1.829464 -68.123958 -5.512807 -4.069425 -80.018432 -0.000007 -0.000008 -0.000007 0.000000 0.000001 0.000004 2.960365 13.109460 -4.988117 0.521488 1.464816 -0.342300 -0.000008 -0.000019 -0.000010 -0.000000 -0.000001 -0.000003 1.541425 10.349298 7.118360 4.996837 -22.457655 74.656304 -6.909436 42.767994 6.263353 10.613159 -3.236416 4.560660 -8.895814 -4.903157 -0.383703 10.667792 -25.955465 0.716050 -0.000001 -0.000004 0.000005 -0.000001 -0.000001 -0.000000 -1.801823 0.396854 27.807087 -0.920303 0.797458 38.244794 0.000003 -0.000003 -0.000005 -0.000002 -0.000000 0.000003 -31.916337 3.740855 14.327025 34.884607 4.085809 -2.141125 -12.189634 0.648331 -3.472774 -1.197670 -2.565677 0.540566 0.000000 -0.000004 -0.000000 -15.137671 -8.232283 -18.910303 18.015701 -2.076665 -2.601800 8.858895 -0.746383 28.585264 -11.354830 0.184348 0.632099 -0.000000 -0.000000 -0.000000 
3.412106 83.893715 12.465783 16.835960 -57.755485 7.743324 6.369449 3.660004 -3.170892 12.928891 7.076723 -6.288189 12.928899 7.076682 -6.288176 -2.236210 -6.944368 -4.945987 35.720458 -2.822940 12.004721 0.000001 0.000001 -0.000001 0.499952 -4.873586 -6.507810 -13.551043 -0.614952 -61.807215 13.062485 -31.860565 2.804859 18.397494 -5.647546 23.460621 6.567272 -2.129156 -69.540622 -5.676557 -4.093270 -81.373460 -0.000007 -0.000007 -0.000008 -0.000002 0.000001 -0.000000 2.709430 13.386871 -5.311817 0.561275 1.502213 -0.381368 -0.000007 -0.000019 -0.000009 -0.000001 0.000001 -0.000001 1.546357 10.329532 7.128609 5.279066 -22.767423 74.630041 -6.707218 42.821410 6.159508 10.773979 -2.787658 4.870345 -8.895816 -4.903157 -0.383706 10.740005 -26.435844 0.946628 -0.000002 -0.000001 0.000007 -0.000001 -0.000003 -0.000004 -1.814033 0.417363 28.477299 -0.963178 0.847784 38.908272 0.000006 -0.000009 -0.000006 -0.000002 0.000001 0.000002 -32.385246 3.370046 14.340715 34.907557 3.542757 -1.803122 -11.683260 0.783262 -4.363128 -1.162798 -2.511885 0.507185 -0.000000 -0.000000 -0.000000 -15.774667 -8.075063 -18.890570 18.480219 -0.297128 -2.857145 7.343239 -1.116382 28.412163 -12.445634 0.310426 0.049226 -0.000000 -0.000001 -0.000000 
